<svg width="240" height="22" viewBox="0 0 240 22" fill="none" xmlns="http://www.w3.org/2000/svg">
<path fill-rule="evenodd" clip-rule="evenodd" d="M65.7103 21.1273C64.3001 21.6682 63.07 21.9087 61.7199 21.9087C55.6594 21.9087 51.069 17.2206 51.069 11C51.069 4.77933 55.6594 0.0913086 61.7199 0.0913086C63.1 0.0913086 64.3001 0.33172 65.7103 0.902697V6.2819C64.6302 5.32026 63.34 4.83944 61.8699 4.83944C58.5396 4.83944 56.0194 7.48396 56.0194 11C56.0194 14.516 58.5396 17.1605 61.8699 17.1605C63.37 17.1605 64.6602 16.6797 65.7103 15.7181V21.1273ZM2.01468 17.8818C1.26461 17.8818 0.604554 17.6113 0.124512 17.0704V21.1273C1.02459 21.6683 1.95467 21.9087 3.06477 21.9087C6.7851 21.9087 9.21531 19.174 9.21531 15.0569V0.481995H4.41489V14.8766C4.41489 16.7398 3.51481 17.8818 2.01468 17.8818ZM29.0771 13.4943C29.0771 18.4828 25.8068 21.9087 21.0964 21.9087C16.326 21.9087 13.0557 18.4828 13.0557 13.4943V0.481995H17.8561V13.4943C17.8561 15.9284 19.0862 17.401 21.0664 17.401C23.0465 17.401 24.2766 15.9284 24.2766 13.4943V0.481995H29.0771V13.4943ZM43.5683 12.5026C45.6685 11.5109 47.0187 9.49743 47.0187 7.00316C47.0187 3.27678 43.9584 0.481995 39.728 0.481995H32.9774V21.518H37.7778V14.3658C41.1081 14.6062 43.3883 17.4611 43.3883 21.518H48.2788C48.2788 17.3709 46.5086 14.1554 43.5683 12.5026ZM38.9479 4.44878C41.0181 4.44878 42.3682 5.62079 42.3682 7.42388C42.3682 9.16686 41.0481 10.3389 39.098 10.3389C38.6779 10.3389 38.2279 10.2788 37.7778 10.1586V4.44878H38.9479ZM80.8016 8.65598H74.411V0.481995H69.6106V21.518H74.411V13.1637H80.8016V21.518H85.602V0.481995H80.8016V8.65598ZM89.5624 0.481995H101.833V4.7493H94.3628V8.77619H99.4032V12.9533H94.3628V17.2507H101.833V21.518H89.5624V0.481995ZM117.345 5.56069C116.895 4.98971 116.385 4.44878 115.815 3.96796C113.264 1.74416 109.604 0.481995 105.674 0.481995V21.518H110.474V6.13166C111.824 6.67259 112.994 7.45393 113.984 8.44563C115.935 10.429 116.955 13.314 116.955 16.8901V21.518H121.755V0.481995H117.345V5.56069ZM132.406 0.481995H146.297V4.65914H141.737V21.518H136.937V4.65914H132.406V0.481995ZM162.049 0.481995H149.778V21.518H162.049V17.2507H154.578V12.9533H159.618V8.77619H154.578V4.7493H162.049V0.481995ZM182.691 0.481995L177.26 10.6093L183.561 21.518H178.22L173.99 13.6445L169.759 21.518H164.419L170.689 10.5492L165.289 0.481995H170.629L173.99 8.05496L177.35 0.481995H182.691ZM199.462 0.481995H185.571V4.65914H190.101V21.518H194.902V4.65914H199.462V0.481995ZM207.743 0.481995V21.518H202.942V0.481995H207.743ZM216.503 0.481995H211.703V21.518H224.004V17.1906H216.503V0.481995ZM227.604 0.481995H239.876V4.7493H232.405V8.77619H237.445V12.9533H232.405V17.2507H239.876V21.518H227.604V0.481995Z" fill="white"/>
</svg>
